<svg xmlns="http://www.w3.org/2000/svg" version="1.1" xmlns:xlink="http://www.w3.org/1999/xlink" xmlns:svgjs="http://svgjs.dev/svgjs" width="1000" height="623" viewBox="0 0 1000 623"><g transform="matrix(1,0,0,1,-0.6060606060606233,0.2522267206477409)"><svg viewBox="0 0 396 247" data-background-color="#ffffff" preserveAspectRatio="xMidYMid meet" height="623" width="1000" xmlns="http://www.w3.org/2000/svg" xmlns:xlink="http://www.w3.org/1999/xlink"><g id="tight-bounds" transform="matrix(1,0,0,1,0.2400000000000091,-0.09999999999999432)"><svg viewBox="0 0 395.52 247.2" height="247.2" width="395.52"><g><svg></svg></g><g><svg viewBox="0 0 395.52 247.2" height="247.2" width="395.52"><g transform="matrix(1,0,0,1,75.54432,97.32490606151089)"><svg viewBox="0 0 244.43135999999998 52.55018787697821" height="52.55018787697821" width="244.43135999999998"><g><svg viewBox="0 0 244.43135999999998 52.55018787697821" height="52.55018787697821" width="244.43135999999998"><g><svg viewBox="0 0 244.43135999999998 52.55018787697821" height="52.55018787697821" width="244.43135999999998"><g><svg viewBox="0 0 244.43135999999998 52.55018787697821" height="52.55018787697821" width="244.43135999999998"><g id="textblocktransform"><svg viewBox="0 0 244.43135999999998 52.55018787697821" height="52.55018787697821" width="244.43135999999998" id="textblock"><g><svg viewBox="0 0 244.43135999999998 52.55018787697821" height="52.55018787697821" width="244.43135999999998"><g transform="matrix(1,0,0,1,0,0)"><svg width="244.43135999999998" viewBox="4.400000095367432 -35.5 167.44000244140625 36" height="52.55018787697821" data-palette-color="#ff0000"><path d="M6.7 0L6.7 0Q5.75 0 5.08-0.6 4.4-1.2 4.4-2.05L4.4-2.05 4.4-33Q4.4-33.85 4.98-34.43 5.55-35 6.4-35L6.4-35 20.2-35Q23-35 25.25-33.73 27.5-32.45 28.83-30.23 30.15-28 30.15-25.1L30.15-25.1Q30.15-23 29.35-21.18 28.55-19.35 27.15-18.03 25.75-16.7 23.95-16L23.95-16 22.85-16.8Q24.55-16.4 25.9-15.38 27.25-14.35 28.1-12.78 28.95-11.2 29-9.1L29-9.1Q29.1-7.25 29.25-6.15 29.4-5.05 29.7-4.42 30-3.8 30.55-3.45L30.55-3.45Q31.25-3 31.48-2.25 31.7-1.5 31.2-0.8L31.2-0.8Q30.9-0.35 30.35-0.18 29.8 0 29.25-0.05 28.7-0.1 28.3-0.35L28.3-0.35Q27.5-0.8 26.75-1.68 26-2.55 25.5-4.2 25-5.85 25-8.7L25-8.7Q25-10.3 24.5-11.35 24-12.4 23.15-13.05 22.3-13.7 21.25-13.95 20.2-14.2 19.1-14.2L19.1-14.2 7.95-14.2 8.55-15.1 8.55-2.05Q8.55-1.2 8.05-0.6 7.55 0 6.7 0ZM8.55-16.9L7.95-17.8 20.2-17.8Q21.65-17.9 22.93-18.8 24.2-19.7 25.03-21.33 25.85-22.95 25.85-25L25.85-25Q25.85-27.65 24.18-29.4 22.5-31.15 19.95-31.15L19.95-31.15 8.15-31.15 8.55-32.1 8.55-16.9ZM69.25-17.5L69.25-17.5Q69.25-13.65 68-10.38 66.75-7.1 64.5-4.65 62.25-2.2 59.15-0.85 56.05 0.5 52.4 0.5L52.4 0.5Q48.7 0.5 45.62-0.85 42.55-2.2 40.3-4.65 38.05-7.1 36.8-10.38 35.55-13.65 35.55-17.5L35.55-17.5Q35.55-21.4 36.8-24.68 38.05-27.95 40.3-30.38 42.55-32.8 45.62-34.15 48.7-35.5 52.4-35.5L52.4-35.5Q56.05-35.5 59.15-34.15 62.25-32.8 64.5-30.38 66.75-27.95 68-24.68 69.25-21.4 69.25-17.5ZM64.95-17.5L64.95-17.5Q64.95-21.6 63.32-24.75 61.7-27.9 58.9-29.7 56.1-31.5 52.4-31.5L52.4-31.5Q48.7-31.5 45.87-29.7 43.05-27.9 41.45-24.75 39.85-21.6 39.85-17.5L39.85-17.5Q39.85-13.45 41.45-10.28 43.05-7.1 45.87-5.3 48.7-3.5 52.4-3.5L52.4-3.5Q56.1-3.5 58.9-5.3 61.7-7.1 63.32-10.28 64.95-13.45 64.95-17.5ZM78-35L78-35Q78.84-35 79.45-34.43 80.05-33.85 80.05-32.95L80.05-32.95 80.05-2.05Q80.05-1.2 79.42-0.6 78.8 0 77.95 0L77.95 0Q77 0 76.45-0.6 75.9-1.2 75.9-2.05L75.9-2.05 75.9-32.95Q75.9-33.85 76.5-34.43 77.09-35 78-35ZM101.05-35L101.05-35Q101.95-35 102.52-34.43 103.09-33.85 103.09-32.95L103.09-32.95 103.09-2.05Q103.09-1.2 102.5-0.6 101.9 0 101 0L101 0Q100.15 0 99.55-0.6 98.95-1.2 98.95-2.05L98.95-2.05 98.95-32.95Q98.95-33.85 99.57-34.43 100.2-35 101.05-35ZM77.65-15.85L77.8-19.75 101.09-19.75 101.05-15.85 77.65-15.85ZM122.89-29.85L123.99-29.8 112.24-1.2Q112.04-0.6 111.54-0.25 111.04 0.1 110.49 0.1L110.49 0.1Q109.54 0.1 109.09-0.4 108.64-0.9 108.64-1.6L108.64-1.6Q108.59-1.95 108.74-2.35L108.74-2.35 121.69-33.85Q121.94-34.55 122.47-34.88 122.99-35.2 123.64-35.15L123.64-35.15Q124.29-35.15 124.82-34.8 125.34-34.45 125.54-33.85L125.54-33.85 138.44-2.65Q138.59-2.25 138.59-1.85L138.59-1.85Q138.59-0.95 137.99-0.43 137.39 0.1 136.64 0.1L136.64 0.1Q136.04 0.1 135.54-0.25 135.04-0.6 134.79-1.25L134.79-1.25 122.89-29.85ZM132.04-9.35L114.74-9.35 116.44-13.25 131.29-13.25 132.04-9.35ZM169.99-35L169.99-35Q170.84-35 171.34-34.48 171.84-33.95 171.84-33.15L171.84-33.15 171.84-2.1Q171.84-1.15 171.24-0.58 170.64 0 169.79 0L169.79 0Q169.34 0 168.89-0.18 168.44-0.35 168.19-0.65L168.19-0.65 146.79-28.95 147.79-29.55 147.79-1.85Q147.79-1.05 147.26-0.53 146.74 0 145.89 0L145.89 0Q145.09 0 144.59-0.53 144.09-1.05 144.09-1.85L144.09-1.85 144.09-33Q144.09-33.9 144.66-34.45 145.24-35 146.04-35L146.04-35Q146.49-35 146.97-34.83 147.44-34.65 147.69-34.3L147.69-34.3 168.79-6.4 168.14-5.6 168.14-33.15Q168.14-33.95 168.66-34.48 169.19-35 169.99-35Z" opacity="1" transform="matrix(1,0,0,1,0,0)" fill="#ff0000" class="undefined-text-0" data-fill-palette-color="primary" id="text-0"></path></svg></g></svg></g></svg></g></svg></g></svg></g></svg></g></svg></g><path d="M202.444 91.325L202.444 31.259 387.127 31.259 387.127 215.941 202.444 215.941 202.444 155.875 207.183 155.875 207.183 211.202 382.388 211.202 382.388 35.998 207.183 35.998 207.183 91.325Z" fill="#ff0000" stroke="transparent" data-fill-palette-color="primary"></path></svg></g><defs></defs></svg><rect width="395.52" height="247.2" fill="none" stroke="none" visibility="hidden"></rect></g></svg></g></svg>